<?xml version="1.0" standalone="no"?>
<!DOCTYPE svg PUBLIC "-//W3C//DTD SVG 20010904//EN"
 "http://www.w3.org/TR/2001/REC-SVG-20010904/DTD/svg10.dtd">
<svg version="1.0" xmlns="http://www.w3.org/2000/svg"
 width="500.000000pt" height="500.000000pt" viewBox="0 0 500.000000 500.000000"
 preserveAspectRatio="xMidYMid meet">

<g transform="translate(0.000000,500.000000) scale(0.100000,-0.100000)"
fill="#ffffff" stroke="none">
<path d="M2610 4803 c0 -10 -11 -99 -25 -198 -13 -98 -21 -183 -19 -187 3 -4
22 -8 43 -8 l39 0 12 133 c6 72 13 136 14 142 1 5 13 -35 25 -90 48 -209 44
-200 77 -203 28 -2 31 2 93 123 35 69 66 123 68 121 4 -4 -5 -71 -32 -238 -4
-24 -1 -28 18 -28 12 0 31 -3 43 -6 19 -5 21 3 46 193 14 109 22 201 19 204
-3 4 -27 9 -54 13 l-47 6 -67 -135 c-37 -74 -70 -135 -73 -135 -3 0 -19 63
-35 140 -16 78 -32 144 -35 149 -3 4 -29 11 -57 15 -47 6 -53 5 -53 -11z"/>
<path d="M2420 4658 c0 -84 3 -177 6 -205 6 -47 10 -53 30 -53 60 0 60 3 47
273 l-6 137 -39 0 -38 0 0 -152z"/>
<path d="M2104 4776 c-69 -30 -103 -113 -86 -212 21 -131 73 -184 177 -184 65
0 128 23 158 57 16 19 17 27 5 99 -8 44 -18 79 -23 79 -6 -1 -41 -5 -78 -9
l-68 -8 3 -32 c3 -29 5 -31 37 -28 37 4 51 -9 51 -46 0 -33 -59 -57 -104 -42
-47 15 -69 60 -74 150 -4 70 -2 77 21 98 35 33 84 32 114 -2 20 -23 28 -26 58
-20 46 8 45 27 -4 75 -36 37 -42 39 -97 39 -33 -1 -73 -7 -90 -14z"/>
<path d="M3143 4714 c-4 -11 -33 -98 -64 -194 l-56 -175 125 -42 c70 -24 129
-40 133 -35 4 4 10 19 14 33 6 25 3 26 -83 52 l-90 27 16 50 c9 28 21 50 27
50 6 0 39 -10 74 -21 64 -22 74 -20 85 18 6 19 0 23 -61 43 -37 12 -71 26 -76
29 -7 7 9 69 22 83 3 4 45 -6 92 -21 l87 -28 9 32 10 32 -116 38 c-64 21 -122
40 -128 42 -7 3 -16 -3 -20 -13z"/>
<path d="M1719 4677 c-44 -22 -44 -23 -72 -122 -15 -55 -28 -104 -30 -109 -2
-5 -18 30 -36 77 l-33 85 -37 -15 c-20 -8 -37 -16 -39 -17 -2 -3 146 -367 152
-373 3 -4 76 25 76 31 0 2 -9 25 -21 50 -20 47 -19 106 3 106 5 0 43 -23 83
-51 l73 -51 47 17 c25 10 42 21 38 25 -4 4 -53 37 -108 75 -55 37 -102 69
-103 71 -2 1 10 51 27 110 17 59 29 109 28 111 -2 1 -23 -7 -48 -20z"/>
<path d="M3393 4432 l-92 -178 28 -17 c16 -9 34 -17 39 -17 6 0 36 51 69 113
l58 112 8 -90 c20 -236 15 -212 54 -235 20 -11 37 -20 38 -18 11 15 186 360
184 362 -2 2 -18 11 -35 19 -39 20 -36 24 -105 -113 l-54 -105 -8 115 c-13
187 -14 194 -46 213 -16 9 -33 17 -38 17 -4 0 -49 -80 -100 -178z"/>
<path d="M1262 4463 c-71 -35 -110 -116 -91 -188 25 -93 108 -188 174 -201 54
-10 114 12 156 56 39 40 52 82 42 130 -8 41 -18 45 -53 20 -24 -17 -28 -26
-24 -49 9 -42 -32 -85 -81 -85 -31 0 -43 6 -67 35 -35 41 -78 126 -78 152 0
25 54 77 80 77 12 0 34 -7 49 -16 26 -15 30 -15 55 1 32 21 30 33 -14 63 -39
26 -100 29 -148 5z"/>
<path d="M3757 4245 c-64 -84 -118 -158 -119 -163 -2 -6 45 -46 104 -91 l107
-80 19 26 20 27 -70 53 c-39 29 -73 55 -75 57 -7 6 50 86 60 86 5 0 35 -21 68
-46 l60 -46 19 24 c11 13 19 25 19 28 0 3 -26 25 -59 48 -33 24 -60 48 -60 53
0 14 42 69 52 69 5 0 38 -23 73 -51 66 -52 85 -56 104 -21 9 17 -1 29 -87 94
-53 41 -102 77 -108 81 -6 4 -59 -58 -127 -148z"/>
<path d="M991 4266 l-23 -25 126 -155 127 -156 30 22 c16 12 29 26 29 31 0 15
-242 307 -254 307 -7 0 -23 -11 -35 -24z"/>
<path d="M845 4121 c-46 -21 -172 -148 -159 -160 5 -4 71 -67 147 -141 l137
-134 30 29 30 29 -52 53 -52 53 23 24 23 24 80 -25 80 -24 28 33 c18 20 24 35
17 37 -7 3 -45 14 -86 26 l-75 22 -1 46 c-1 50 -25 86 -77 113 -35 18 -45 17
-93 -5z m78 -89 c27 -24 21 -64 -15 -99 l-33 -31 -44 39 -44 40 29 30 c47 50
68 54 107 21z"/>
<path d="M4100 4123 c-23 -12 -39 -30 -49 -55 -14 -40 -13 -48 35 -171 21 -55
13 -80 -28 -85 -18 -2 -33 6 -52 28 -27 33 -32 55 -17 79 11 16 -25 71 -46 71
-19 0 -33 -34 -33 -81 0 -83 74 -167 155 -177 36 -4 47 0 76 26 30 27 34 36
34 79 0 31 -10 70 -28 111 -31 68 -32 89 -4 106 38 24 104 -43 87 -89 -6 -16
-2 -29 16 -51 l24 -29 20 24 c24 27 26 80 6 120 -17 32 -90 101 -109 101 -6 0
-21 3 -32 5 -11 3 -36 -2 -55 -12z"/>
<path d="M532 3766 l-92 -134 26 -21 27 -21 34 50 c18 27 35 50 38 50 2 0 65
-43 141 -95 l137 -95 23 33 c12 17 20 35 18 38 -2 4 -64 48 -139 99 l-135 93
36 50 36 50 -23 18 c-13 10 -27 19 -30 19 -3 0 -47 -60 -97 -134z"/>
<path d="M332 3425 c-7 -14 -12 -33 -12 -42 0 -20 291 -316 300 -305 4 4 13
22 20 40 12 31 11 35 -17 65 l-30 32 28 63 29 62 49 0 c46 0 50 2 60 31 6 18
11 35 11 39 0 4 -75 12 -167 19 -93 6 -189 14 -214 17 -41 5 -46 3 -57 -21z
m225 -71 c21 -4 21 -5 7 -42 -9 -20 -19 -40 -23 -44 -4 -5 -31 17 -61 48 l-55
55 55 -6 c30 -3 65 -8 77 -11z"/>
<path d="M4477 3405 c-21 -8 -51 -23 -67 -35 -33 -24 -70 -94 -70 -135 0 -41
43 -185 55 -185 5 0 95 26 198 57 l188 58 -6 34 c-10 51 -43 136 -65 164 -43
54 -148 73 -233 42z m157 -76 c26 -12 61 -72 53 -92 -6 -16 -247 -91 -258 -80
-4 4 -11 26 -14 49 -6 34 -3 45 20 72 41 49 145 75 199 51z"/>
<path d="M2640 3317 c0 -1 -128 -380 -285 -842 -157 -462 -285 -845 -285 -852
0 -16 215 -19 225 -4 6 11 575 1686 575 1695 0 3 -52 6 -115 6 -63 0 -115 -1
-115 -3z"/>
<path d="M263 3130 c-45 -27 -59 -52 -87 -158 -18 -68 -22 -94 -13 -97 39 -14
356 -95 369 -95 9 0 18 10 22 23 12 47 8 53 -48 67 -78 18 -80 20 -67 66 26
95 7 170 -53 198 -45 21 -84 20 -123 -4z m106 -84 c14 -11 10 -111 -6 -127 -8
-8 -109 13 -120 25 -3 2 2 27 11 54 22 66 68 85 115 48z"/>
<path d="M4625 3039 c-245 -32 -225 -27 -225 -57 0 -55 6 -57 142 -40 67 8
124 14 126 12 2 -1 -51 -46 -118 -100 l-122 -98 6 -40 c4 -22 8 -41 9 -42 1
-1 93 10 205 24 l202 25 0 31 c0 56 -4 58 -134 40 -65 -8 -122 -14 -127 -12
-5 2 45 45 111 97 123 96 128 104 114 159 -7 26 -2 26 -189 1z"/>
<path d="M1473 2743 l-463 -196 0 -127 0 -127 456 -194 c251 -107 461 -196
466 -197 5 -2 7 63 6 149 l-3 152 -304 107 -304 107 54 20 c30 11 164 60 299
108 135 48 248 91 253 95 4 3 6 72 5 153 l-3 146 -462 -196z"/>
<path d="M3030 2792 l0 -150 148 -52 c81 -28 220 -77 310 -108 89 -31 162 -59
162 -62 0 -3 -134 -52 -298 -109 -163 -57 -303 -109 -309 -114 -9 -7 -13 -50
-13 -154 0 -134 1 -145 18 -139 9 4 223 93 475 198 l457 192 0 122 c0 86 -4
124 -12 131 -10 7 -831 353 -925 390 -10 4 -13 -29 -13 -145z"/>
<path d="M4437 2584 c-4 -42 -7 -105 -7 -140 l0 -62 118 -6 c64 -3 156 -8 204
-11 104 -6 96 -18 100 158 l3 117 -31 0 c-27 0 -32 -4 -38 -31 -3 -17 -6 -60
-6 -96 l0 -64 -52 3 -53 3 -3 83 -3 82 -28 0 c-24 0 -30 -5 -35 -31 -3 -17 -6
-53 -6 -80 l0 -49 -51 0 -51 0 4 98 3 97 -31 3 -31 3 -6 -77z"/>
<path d="M4422 2325 l-11 -50 75 -87 c42 -49 71 -88 66 -88 -6 0 -44 7 -87 16
-42 9 -79 14 -81 11 -2 -2 -5 -21 -7 -42 l-2 -39 185 -37 c102 -21 192 -38
201 -39 11 0 18 12 22 37 7 43 1 49 -59 58 -38 5 -59 20 -78 52 -4 7 24 23 80
45 90 35 97 41 108 100 l7 37 -127 -51 -127 -52 -51 59 c-28 33 -63 73 -77 89
l-27 30 -10 -49z"/>
<path d="M212 2235 c-101 -24 -186 -46 -189 -49 -7 -7 25 -144 42 -177 8 -15
32 -41 52 -56 33 -25 44 -28 117 -28 70 0 87 4 127 27 86 51 109 118 81 243
-11 54 -22 80 -32 82 -8 1 -98 -18 -198 -42z m171 -91 c12 -70 -28 -115 -119
-134 -90 -19 -132 3 -154 81 -7 25 -5 30 13 34 94 24 225 54 238 54 11 1 18
-10 22 -35z"/>
<path d="M4402 1983 c-39 -8 -97 -74 -111 -127 -28 -111 51 -202 207 -237 84
-19 157 18 193 96 35 75 20 149 -38 195 l-28 22 -17 -39 c-17 -37 -17 -38 8
-64 29 -30 30 -54 4 -96 -18 -29 -25 -33 -65 -33 -55 0 -168 48 -184 78 -30
57 -1 122 55 122 31 0 37 4 50 36 21 50 3 62 -74 47z"/>
<path d="M310 1872 c-102 -41 -186 -77 -188 -78 -6 -4 101 -254 109 -254 4 0
19 4 33 10 l25 9 -35 85 c-19 47 -34 88 -34 91 0 11 93 46 100 38 4 -4 17 -35
30 -68 13 -33 26 -64 30 -68 7 -8 60 11 60 22 0 4 -13 38 -30 76 l-29 70 37
17 c20 10 42 18 48 18 6 0 26 -38 44 -85 18 -47 37 -85 41 -85 15 0 59 23 57
30 -69 171 -103 250 -107 249 -3 0 -89 -35 -191 -77z"/>
<path d="M511 1614 c-39 -33 -47 -74 -30 -174 14 -88 7 -110 -36 -110 -49 0
-87 99 -50 130 15 13 12 24 -18 65 -15 19 -16 19 -36 1 -32 -29 -45 -84 -32
-133 16 -58 69 -124 113 -141 33 -13 41 -12 75 4 25 13 45 32 57 58 17 36 18
45 6 123 -14 89 -9 115 23 121 43 9 87 -84 55 -116 -9 -9 -7 -20 8 -47 10 -19
21 -35 25 -35 3 0 16 12 30 26 36 38 34 115 -4 173 -53 80 -129 103 -186 55z"/>
<path d="M4146 1556 l-19 -35 134 -170 c74 -93 137 -170 141 -170 3 -1 16 15
27 35 l21 36 -29 35 -29 35 38 62 c38 63 41 64 102 52 22 -4 30 0 48 31 11 19
19 37 17 40 -4 3 -410 82 -427 83 -3 0 -14 -15 -24 -34z m192 -76 c28 -7 52
-15 52 -18 0 -4 -11 -24 -23 -45 l-24 -39 -54 63 c-47 54 -51 62 -29 56 14 -3
49 -11 78 -17z"/>
<path d="M630 1269 c-85 -72 -154 -135 -152 -141 2 -8 70 -93 162 -201 4 -5
19 2 34 15 l26 23 -62 74 -61 73 39 34 c21 18 42 33 45 34 3 0 28 -27 54 -60
26 -33 51 -60 53 -60 3 0 16 10 29 21 l22 22 -49 57 c-28 32 -50 62 -49 66 0
5 16 22 35 38 31 25 36 27 47 13 7 -8 34 -42 62 -76 l50 -60 22 21 c13 12 23
24 23 28 0 6 -169 210 -173 210 -1 -1 -72 -60 -157 -131z"/>
<path d="M3999 1325 c-33 -18 -150 -155 -143 -167 3 -5 73 -67 156 -138 l150
-129 69 81 c78 92 95 134 75 183 -21 50 -64 78 -108 72 -37 -5 -38 -4 -38 25
0 45 -48 88 -97 88 -21 -1 -50 -7 -64 -15z m81 -85 c28 -28 25 -45 -14 -87
l-34 -37 -35 29 c-20 17 -36 34 -36 39 -2 14 66 76 83 76 9 0 25 -9 36 -20z
m128 -96 c32 -22 28 -62 -11 -106 l-32 -38 -43 38 -42 37 39 43 c42 46 55 50
89 26z"/>
<path d="M868 1048 c-58 -68 -118 -138 -134 -157 l-28 -34 28 -23 c15 -13 31
-24 35 -24 4 0 45 43 91 96 45 52 83 94 85 92 2 -2 -8 -70 -22 -151 l-25 -149
28 -29 c15 -16 31 -29 34 -29 4 0 64 68 135 150 70 83 129 149 131 147 2 -2
-14 -93 -36 -203 -22 -109 -38 -205 -35 -211 2 -7 20 -20 38 -29 l34 -16 162
137 c88 75 161 141 161 146 0 4 -17 17 -37 28 l-38 19 -117 -110 c-65 -61
-118 -107 -118 -104 0 4 16 70 35 146 19 76 35 146 35 154 0 8 -19 25 -43 39
-23 14 -51 34 -61 46 -11 12 -25 21 -32 21 -7 0 -49 -43 -94 -95 -46 -53 -84
-95 -85 -93 -2 2 9 71 23 155 l25 152 -29 25 c-16 14 -32 26 -35 26 -4 0 -54
-55 -111 -122z"/>
<path d="M3634 981 c-17 -11 -59 -39 -92 -64 l-61 -45 120 -166 c66 -91 123
-166 127 -166 4 0 20 11 37 24 l29 24 -42 55 c-23 31 -42 60 -42 64 0 5 12 16
27 25 26 16 29 15 103 -22 l76 -38 36 27 37 27 -85 42 -84 42 6 43 c15 110
-98 185 -192 128z m98 -78 c30 -27 23 -68 -19 -102 -21 -17 -42 -30 -46 -28
-5 1 -24 23 -43 48 l-34 46 38 27 c42 30 77 33 104 9z"/>
<path d="M3283 775 c-56 -34 -88 -99 -79 -162 17 -124 112 -232 207 -233 35 0
120 45 143 77 27 37 32 119 12 181 -19 55 -74 125 -117 147 -44 23 -117 19
-166 -10z m127 -60 c35 -18 90 -124 90 -173 0 -78 -89 -112 -142 -54 -38 40
-71 111 -72 155 -1 31 5 44 27 63 32 28 56 30 97 9z"/>
<path d="M1584 706 c-38 -17 -82 -69 -105 -128 -22 -54 -24 -149 -4 -188 39
-76 150 -112 229 -75 63 30 126 148 126 235 0 119 -135 204 -246 156z m133
-80 c24 -20 28 -31 26 -69 -2 -56 -38 -142 -71 -167 -35 -28 -77 -25 -109 6
-23 23 -25 31 -20 79 9 92 68 175 123 175 12 0 36 -11 51 -24z"/>
<path d="M2908 637 c-43 -11 -78 -25 -78 -30 0 -6 67 -248 106 -379 4 -15 13
-14 87 9 99 30 131 52 158 106 17 33 20 53 17 102 -8 98 -53 167 -130 200 -47
19 -65 18 -160 -8z m159 -82 c13 -14 30 -51 39 -82 21 -72 8 -125 -36 -148
-60 -31 -64 -26 -103 112 -20 70 -33 130 -29 134 28 26 100 17 129 -16z"/>
<path d="M1905 627 c-12 -33 -75 -390 -71 -395 3 -3 61 -16 128 -29 129 -25
138 -24 138 23 0 18 -10 23 -82 38 -44 9 -84 18 -87 21 -3 3 9 79 27 168 17
89 28 164 24 168 -15 14 -73 19 -77 6z"/>
<path d="M2645 589 c-71 -10 -148 -18 -170 -16 l-40 2 -50 -142 c-27 -78 -53
-144 -56 -148 -4 -3 -23 61 -44 143 l-37 150 -45 6 c-26 3 -48 5 -49 3 -3 -2
25 -97 97 -329 l30 -98 44 0 43 0 79 200 c43 109 81 196 84 192 3 -4 16 -92
28 -197 13 -104 23 -191 24 -192 1 0 63 6 137 16 l135 17 -2 28 c-1 16 -4 31
-7 33 -3 3 -45 1 -93 -5 -48 -6 -90 -9 -92 -6 -2 2 -6 26 -9 53 -5 57 -9 54
102 66 l58 7 -6 31 c-3 17 -7 32 -9 33 -1 2 -36 -2 -76 -7 -84 -12 -91 -8 -91
52 l0 36 92 12 c51 7 93 13 94 14 1 1 -1 17 -3 35 -6 37 7 36 -168 11z"/>
</g>
</svg>
